<svg width="49" height="48" viewBox="0 0 49 48" fill="none" xmlns="http://www.w3.org/2000/svg">
<rect x="0.5" width="48" height="48" rx="24" fill="#0066FF"/>
<path fill-rule="evenodd" clip-rule="evenodd" d="M20.5001 26.2819V29.7181C20.5001 30.1638 20.4536 30.3255 20.3665 30.4884C20.2793 30.6514 20.1514 30.7793 19.9885 30.8664C19.8255 30.9536 19.6639 31 19.2181 31H17.5001C15.8432 31 14.5001 29.6569 14.5001 28C14.5001 26.6938 15.3349 25.5825 16.5001 25.1707V23C16.5001 18.5817 20.0818 15 24.5001 15C28.9183 15 32.5001 18.5817 32.5001 23V25.1707C33.6653 25.5825 34.5001 26.6938 34.5001 28C34.5001 29.6569 33.1569 31 31.5001 31H29.782C29.3362 31 29.1746 30.9536 29.0116 30.8664C28.8487 30.7793 28.7208 30.6514 28.6336 30.4884C28.5465 30.3255 28.5001 30.1638 28.5001 29.7181V26.2819C28.5001 25.8362 28.5465 25.6745 28.6336 25.5116C28.7208 25.3486 28.8487 25.2207 29.0116 25.1336C29.1746 25.0464 29.3362 25 29.782 25H30.5001V23C30.5001 19.6863 27.8138 17 24.5001 17C21.1864 17 18.5001 19.6863 18.5001 23V25H19.2181C19.6639 25 19.8255 25.0464 19.9885 25.1336C20.1514 25.2207 20.2793 25.3486 20.3665 25.5116C20.4536 25.6745 20.5001 25.8362 20.5001 26.2819Z" fill="white"/>
</svg>
